<svg width="32" height="32" viewBox="0 0 32 32" fill="none" xmlns="http://www.w3.org/2000/svg">
<g opacity="0.4">
<rect x="0.5" y="0.5" width="31" height="31" rx="3.5" stroke="white"/>
<g clip-path="url(#clip0_9592_9186)">
<path d="M20.2945 10.9038C19.8526 10.9038 19.4945 11.262 19.4945 11.7038C19.4945 12.1457 19.8526 12.5038 20.2945 12.5038H20.302C20.7438 12.5038 21.102 12.1457 21.102 11.7038C21.102 11.262 20.7438 10.9038 20.302 10.9038H20.2945Z" fill="white"/>
<path fill-rule="evenodd" clip-rule="evenodd" d="M16.6076 12.0842C15.7911 11.9631 14.9571 12.1026 14.2244 12.4828C13.4917 12.863 12.8975 13.4645 12.5264 14.2019C12.1553 14.9392 12.0261 15.7748 12.1572 16.5898C12.2884 17.4048 12.6732 18.1577 13.2569 18.7414C13.8406 19.3251 14.5935 19.7099 15.4085 19.8411C16.2235 19.9722 17.0591 19.843 17.7964 19.4719C18.5338 19.1008 19.1353 18.5066 19.5155 17.7739C19.8957 17.0412 20.0352 16.2072 19.9141 15.3907C19.7906 14.5577 19.4025 13.7866 18.8071 13.1912C18.2117 12.5958 17.4406 12.2077 16.6076 12.0842ZM14.9613 13.903C15.3953 13.6778 15.8893 13.5952 16.3729 13.6669C16.8663 13.7401 17.323 13.9699 17.6757 14.3226C18.0284 14.6753 18.2582 15.132 18.3314 15.6254C18.4031 16.109 18.3205 16.603 18.0953 17.037C17.8701 17.471 17.5138 17.8229 17.0771 18.0427C16.6403 18.2626 16.1454 18.3391 15.6627 18.2614C15.1799 18.1837 14.734 17.9558 14.3882 17.6101C14.0425 17.2643 13.8146 16.8184 13.7369 16.3356C13.6592 15.8529 13.7357 15.358 13.9556 14.9212C14.1754 14.4845 14.5273 14.1282 14.9613 13.903Z" fill="white"/>
<path fill-rule="evenodd" clip-rule="evenodd" d="M7.38672 12.0944C7.38672 9.4955 9.49354 7.38867 12.0924 7.38867H19.9039C22.5028 7.38867 24.6096 9.4955 24.6096 12.0944V19.9058C24.6096 20.8549 24.3286 21.7384 23.8454 22.4776C23.8274 22.6237 23.7355 22.7468 23.6081 22.8084C22.7466 23.9062 21.4076 24.6116 19.9039 24.6116H12.0924C9.49354 24.6116 7.38672 22.5047 7.38672 19.9058V12.0944ZM12.0924 8.98867C10.3772 8.98867 8.98672 10.3792 8.98672 12.0944V19.9058C8.98672 21.6211 10.3772 23.0116 12.0924 23.0116H19.9039C21.6191 23.0116 23.0096 21.6211 23.0096 19.9058V12.0944C23.0096 10.3792 21.6191 8.98867 19.9039 8.98867H12.0924Z" fill="white"/>
</g>
</g>
<defs>
<clipPath id="clip0_9592_9186">
<rect width="18" height="18" fill="white" transform="translate(7 7)"/>
</clipPath>
</defs>
</svg>
