<svg width="64" height="64" viewBox="0 0 64 64" fill="none" xmlns="http://www.w3.org/2000/svg">
<g clip-path="url(#clip0_395_15904)">
<path d="M31.9987 34.6664C28.324 34.6664 25.332 31.6744 25.332 27.9997C25.332 24.325 28.324 21.333 31.9987 21.333C35.6734 21.333 38.6654 24.325 38.6654 27.9997C38.6654 31.6744 35.6734 34.6664 31.9987 34.6664ZM31.9987 23.9997C29.7934 23.9997 27.9987 25.7943 27.9987 27.9997C27.9987 30.205 29.7934 31.9997 31.9987 31.9997C34.204 31.9997 35.9987 30.205 35.9987 27.9997C35.9987 25.7943 34.204 23.9997 31.9987 23.9997Z" fill="black"/>
<path d="M34.0674 45.3337H29.9341C28.5741 45.3337 27.4487 44.299 27.3207 42.9257L26.9901 39.531C26.2167 39.1737 25.4781 38.7337 24.7794 38.211L21.7901 39.6003C20.5421 40.179 19.0861 39.707 18.4087 38.491L16.3447 34.811C15.6834 33.6297 16.0007 32.1363 17.0807 31.3363L19.7474 29.363C19.6967 28.947 19.6594 28.483 19.6594 28.0003C19.6594 27.5177 19.6967 27.0537 19.7474 26.6377L17.0807 24.6643C16.0007 23.8643 15.6834 22.371 16.3421 21.1897L18.4087 17.507C19.0861 16.299 20.5394 15.819 21.7901 16.4003L24.7794 17.7897C25.4754 17.267 26.2167 16.827 26.9901 16.4697L27.3207 13.0723C27.4487 11.7017 28.5741 10.667 29.9341 10.667H34.0674C35.4274 10.667 36.5527 11.7017 36.6807 13.075L37.0114 16.4697C37.7874 16.827 38.5261 17.267 39.2221 17.7897L42.2114 16.4003C43.4647 15.827 44.9181 16.2963 45.5927 17.5097L47.6567 21.1897C48.3181 22.371 48.0007 23.8643 46.9207 24.6643L44.2541 26.6377C44.3047 27.0537 44.3421 27.5177 44.3421 28.0003C44.3421 28.483 44.3047 28.947 44.2541 29.363L46.9207 31.3363C48.0007 32.1337 48.3181 33.627 47.6567 34.8083L45.5901 38.491C44.9154 39.699 43.4621 40.1737 42.2114 39.5977L39.2221 38.2083C38.5261 38.731 37.7847 39.171 37.0114 39.5283L36.6807 42.9257C36.5527 44.299 35.4274 45.3337 34.0674 45.3337ZM24.9687 35.3203C25.2834 35.3203 25.5927 35.4323 25.8381 35.643C26.7127 36.3977 27.6781 36.9763 28.7074 37.363C29.1847 37.5417 29.5154 37.9737 29.5661 38.4803L29.9741 42.6697L34.0674 42.667L34.4354 38.4803C34.4861 37.9737 34.8167 37.539 35.2941 37.363C36.3234 36.9737 37.2887 36.3977 38.1634 35.643C38.5581 35.3017 39.1207 35.2243 39.5954 35.443L43.3341 37.1817L45.3314 33.507L42.0247 31.0323C41.6221 30.7337 41.4194 30.235 41.5021 29.739C41.5981 29.1737 41.6754 28.5977 41.6754 28.003C41.6754 27.4083 41.5981 26.8323 41.5021 26.267C41.4194 25.771 41.6194 25.2697 42.0247 24.9737L45.3341 22.5203L43.2647 18.811L39.5954 20.5577C39.1181 20.779 38.5581 20.699 38.1607 20.3577C37.2887 19.6057 36.3234 19.027 35.2914 18.6377C34.8141 18.459 34.4834 18.027 34.4327 17.5203L34.0274 13.331L29.9341 13.3337L29.5661 17.5203C29.5154 18.027 29.1847 18.4617 28.7074 18.6377C27.6781 19.027 26.7127 19.603 25.8381 20.3577C25.4407 20.699 24.8807 20.7763 24.4061 20.5577L20.6674 18.819L18.6701 22.4937L21.9767 24.9683C22.3794 25.267 22.5821 25.7657 22.4994 26.2617C22.4007 26.8297 22.3261 27.403 22.3261 28.0003C22.3261 28.5977 22.4034 29.171 22.4994 29.7363C22.5821 30.2323 22.3821 30.7337 21.9767 31.0297L18.6674 33.4803L20.7367 37.1897L24.4061 35.443C24.5847 35.3603 24.7794 35.3203 24.9687 35.3203Z" fill="black"/>
<path d="M56 64H8C3.58933 64 0 60.4107 0 56C0 51.5893 3.58933 48 8 48H56C60.4107 48 64 51.5893 64 56C64 60.4107 60.4107 64 56 64ZM8 50.6667C5.05867 50.6667 2.66667 53.0587 2.66667 56C2.66667 58.9413 5.05867 61.3333 8 61.3333H56C58.9413 61.3333 61.3333 58.9413 61.3333 56C61.3333 53.0587 58.9413 50.6667 56 50.6667H8Z" fill="black"/>
<path d="M7.9987 58.6664C6.52936 58.6664 5.33203 57.469 5.33203 55.9997C5.33203 54.5303 6.52936 53.333 7.9987 53.333C9.46803 53.333 10.6654 54.5303 10.6654 55.9997C10.6654 57.469 9.46803 58.6664 7.9987 58.6664ZM7.9987 55.997C7.9987 55.9997 7.9987 55.9997 7.9987 55.997L9.33203 55.9997L7.9987 55.997Z" fill="black"/>
<path d="M23.9987 58.6664C22.5294 58.6664 21.332 57.469 21.332 55.9997C21.332 54.5303 22.5294 53.333 23.9987 53.333C25.468 53.333 26.6654 54.5303 26.6654 55.9997C26.6654 57.469 25.468 58.6664 23.9987 58.6664ZM23.9987 55.997C23.9987 55.9997 23.9987 55.9997 23.9987 55.997L25.332 55.9997L23.9987 55.997Z" fill="black"/>
<path d="M39.9987 58.6664C38.5294 58.6664 37.332 57.469 37.332 55.9997C37.332 54.5303 38.5294 53.333 39.9987 53.333C41.468 53.333 42.6654 54.5303 42.6654 55.9997C42.6654 57.469 41.468 58.6664 39.9987 58.6664ZM39.9987 55.997C39.9987 55.9997 39.9987 55.9997 39.9987 55.997L41.332 55.9997L39.9987 55.997Z" fill="black"/>
<path d="M55.9987 58.6664C54.5294 58.6664 53.332 57.469 53.332 55.9997C53.332 54.5303 54.5294 53.333 55.9987 53.333C57.468 53.333 58.6654 54.5303 58.6654 55.9997C58.6654 57.469 57.468 58.6664 55.9987 58.6664ZM55.9987 55.997C55.9987 55.9997 55.9987 55.9997 55.9987 55.997L57.332 55.9997L55.9987 55.997Z" fill="black"/>
</g>
<defs>
<clipPath id="clip0_395_15904">
<rect width="64" height="64" fill="white"/>
</clipPath>
</defs>
</svg>
